<?xml version="1.0" encoding="utf-8"?>
<!-- Generator: Adobe Illustrator 24.1.1, SVG Export Plug-In . SVG Version: 6.00 Build 0)  -->
<svg version="1.1" id="Layer_1" xmlns="http://www.w3.org/2000/svg" xmlns:xlink="http://www.w3.org/1999/xlink" x="0px" y="0px"
	 viewBox="0 0 158 121" enable-background="new 0 0 158 121" xml:space="preserve">
<path d="M138.7,73L138.7,73c0,4.4-3.6,8-8,8h-105c-4.4,0-8-3.6-8-8l0,0l0,0H138.7L138.7,73z"/>
<g id="Rectangle_86">
	<path fill="#06255E" d="M35.2,15L35.2,15c3.3,0,6,2.7,6,6v44c0,3.3-2.7,6-6,6l0,0c-3.3,0-6-2.7-6-6V21C29.2,17.7,31.9,15,35.2,15z"
		/>
</g>
<g id="Rectangle_87">
	<path fill="#1461F0" d="M60.1,23.7L60.1,23.7c2.2,0.7,3.4,3.1,2.7,5.2L50.5,66.6c-0.7,2.2-3.1,3.4-5.2,2.7l0,0
		c-2.2-0.7-3.4-3.1-2.7-5.2l12.3-37.7C55.6,24.2,57.9,23,60.1,23.7z"/>
</g>
<g id="Rectangle_88">
	<path fill="#B2CBFA" d="M66.7,33L66.7,33c2.5,0,4.5,2,4.5,4.5v29c0,2.5-2,4.5-4.5,4.5l0,0c-2.5,0-4.5-2-4.5-4.5v-29
		C62.2,35,64.2,33,66.7,33z"/>
</g>
<g id="Rectangle_89">
	<path fill="#2728F2" d="M80.2,0L80.2,0c3.9,0,7,3.1,7,7v57c0,3.9-3.1,7-7,7l0,0c-3.9,0-7-3.1-7-7V7C73.2,3.1,76.3,0,80.2,0z"/>
</g>
<g id="Rectangle_90">
	<path fill="#041639" d="M92.7,18L92.7,18c1.9,0,3.5,1.6,3.5,3.5v46c0,1.9-1.6,3.5-3.5,3.5l0,0c-1.9,0-3.5-1.6-3.5-3.5v-46
		C89.2,19.6,90.7,18,92.7,18z"/>
</g>
<g id="Rectangle_91">
	<path fill="#27D7F2" d="M123.2,27L123.2,27c2.2,0,4,1.8,4,4v36c0,2.2-1.8,4-4,4l0,0c-2.2,0-4-1.8-4-4V31
		C119.2,28.8,121,27,123.2,27z"/>
</g>
<g id="Rectangle_92">
	<path fill="#B127F2" d="M100.1,12.7L100.1,12.7c2.2-0.6,4.5,0.8,5,3l12.2,48.8c0.6,2.2-0.8,4.5-3,5l0,0c-2.2,0.6-4.5-0.8-5-3
		L97.1,17.8C96.5,15.5,97.9,13.3,100.1,12.7z"/>
</g>
<g enable-background="new    ">
	<path fill="#072C71" d="M36.3,96.3h11.5c1,0,1.9,0.4,2.6,1.1s1.1,1.6,1.1,2.6V115H48v-6.3H36.1v6.3h-3.4V99.9c0-1,0.4-1.9,1.1-2.6
		S35.3,96.3,36.3,96.3z M36.1,105.3H48v-5.4c0-0.1-0.1-0.2-0.2-0.2H36.3c-0.1,0-0.2,0.1-0.2,0.2V105.3z"/>
	<path fill="#072C71" d="M54.4,96.3h15.1c1,0,1.9,0.4,2.6,1.1s1.1,1.6,1.1,2.5v5c0,1-0.4,1.8-1.1,2.5c-0.7,0.7-1.6,1.1-2.6,1.1
		l-11.6,0l-0.1,0v6.4h-3.4V96.3z M69.6,105v-5c0-0.1-0.1-0.2-0.2-0.2H58c-0.1,0-0.2,0.1-0.2,0.2v5c0,0.1,0.1,0.2,0.2,0.2h11.5
		C69.6,105.1,69.6,105.1,69.6,105z"/>
</g>
<g enable-background="new    ">
</g>
<g enable-background="new    ">
	<path fill="#2728F2" d="M83,115V96.3h3.4v15.3h15.3v3.4H83z"/>
	<path fill="#2728F2" d="M103.1,95h3.4v3.4h-3.4V95z M103.1,115V99.9h3.4V115H103.1z"/>
	<path fill="#2728F2" d="M120.9,99.9c1,0,1.8,0.4,2.5,1.1c0.7,0.7,1.1,1.5,1.1,2.5v7.9c0,1-0.4,1.8-1.1,2.5s-1.5,1.1-2.5,1.1h-11.7
		V95h3.4v4.9H120.9z M121.1,111.4v-7.9c0-0.1-0.1-0.2-0.2-0.2h-8.1c-0.1,0-0.2,0.1-0.2,0.2v7.9c0,0.1,0.1,0.2,0.2,0.2h8.1
		C121.1,111.6,121.1,111.5,121.1,111.4z"/>
</g>
</svg>
