<svg xmlns="http://www.w3.org/2000/svg" width="31.424" height="25.569" viewBox="0 0 31.424 25.569">
  <g id="meeting-room-icon" transform="translate(-0.002)">
    <path id="Path_79" data-name="Path 79" d="M20.844,14.03H10.116a.117.117,0,0,0-.118.118v2.033a.117.117,0,0,0,.118.118h4.4v8.053a.159.159,0,0,0,.159.159h1.8a.159.159,0,0,0,.159-.159V16.3h4.222a.119.119,0,0,0,.118-.118V14.15a.128.128,0,0,0-.123-.12Zm9.6,10.352a.343.343,0,0,0-.1-.2A4.384,4.384,0,0,0,28.82,23.2a5.175,5.175,0,0,0-1.345-.32l.09-.522H30.8a.617.617,0,0,0,.614-.614c0-2.539-.6-4.746,0-7.639.176-.857-1.591-.979-1.591.046v6.509H23.705c-.547,0-.614,1.148-.614,1.565a.136.136,0,0,0,.136.136h3.245l.125.506a5.187,5.187,0,0,0-1.427.3,4.5,4.5,0,0,0-1.486.887.349.349,0,0,0-.1.343.56.56,0,0,0-.261.524.652.652,0,1,0,1.3,0,.565.565,0,0,0-.266-.527,3.952,3.952,0,0,1,1.049-.575,4.364,4.364,0,0,1,1.368-.261l.072.706,0,.031a.628.628,0,0,0-.478.629.652.652,0,1,0,1.3,0,.623.623,0,0,0-.473-.627l0-.033.051-.7a4.407,4.407,0,0,1,1.307.286h0a3.673,3.673,0,0,1,1.041.606.522.522,0,0,0-.194.465.717.717,0,0,0,.652.652.7.7,0,0,0,.652-.652.565.565,0,0,0-.271-.534ZM26.1,4.491a2.683,2.683,0,1,0,2.683,2.683A2.684,2.684,0,0,0,26.1,4.491ZM22.979,17.15h-2.46a1.338,1.338,0,0,0-1.335,1.335c0,2.181.015,3.854.015,6.048l2.667.005V20.37c0-.586.22-.381.88-.381,1.57,0,2.118-.008,3.683-.008a2.01,2.01,0,0,0,2-2V12.352a2.046,2.046,0,0,0-2.041-2.041c-4.874,0-3.47,3.463-3.414,6.838Zm-22,7.232a.343.343,0,0,1,.1-.2A4.408,4.408,0,0,1,2.607,23.2a5.175,5.175,0,0,1,1.345-.32l-.09-.522H.628a.617.617,0,0,1-.614-.614c0-2.539.6-4.746,0-7.639-.176-.857,1.591-.979,1.591.046v6.509H7.722c.547,0,.614,1.148.614,1.565a.136.136,0,0,1-.136.136H4.955l-.125.506a5.187,5.187,0,0,1,1.427.3,4.5,4.5,0,0,1,1.486.887.349.349,0,0,1,.1.343.56.56,0,0,1,.261.524.7.7,0,0,1-.652.652.7.7,0,0,1-.652-.652.565.565,0,0,1,.266-.527,3.952,3.952,0,0,0-1.049-.575,4.364,4.364,0,0,0-1.368-.261l-.072.706,0,.031a.628.628,0,0,1,.478.629.652.652,0,1,1-1.3,0,.623.623,0,0,1,.473-.627l0-.033-.051-.7a4.373,4.373,0,0,0-1.3.286h0a3.708,3.708,0,0,0-1.041.606.522.522,0,0,1,.194.465.717.717,0,0,1-.652.652.7.7,0,0,1-.652-.652.559.559,0,0,1,.269-.534ZM5.2,4.491A2.683,2.683,0,1,1,2.513,7.173,2.684,2.684,0,0,1,5.2,4.491ZM7.978,17.15h2.46a1.338,1.338,0,0,1,1.335,1.335c0,2.015-.015,4.02-.015,6.048H9.09V20.367c0-.586-.22-.381-.88-.381-1.57,0-2.118-.008-3.683-.008a2.01,2.01,0,0,1-2-2V12.352a2.046,2.046,0,0,1,2.041-2.041c4.874,0,3.47,3.463,3.414,6.838ZM15.463,0a2.55,2.55,0,1,1-2.55,2.55A2.55,2.55,0,0,1,15.463,0ZM11.512,7.429a5.455,5.455,0,0,0-1.24,3.176c-.11.747-.212.667-.2,1.148.043,1.54,2.084,1.652,2.207-.064l.159-1.171a1.646,1.646,0,0,1,.235-.793,1.866,1.866,0,0,1,.294-.491l.018.76h0L13,12.858h4.951l.02-2.864h0l.018-.76a1.84,1.84,0,0,1,.294.491,1.646,1.646,0,0,1,.235.793l.159,1.171c.189,1.742,2.212,1.522,2.207.064a6.985,6.985,0,0,0-.2-1.148A5.428,5.428,0,0,0,19.294,7.25c-1.69-1.956-6.112-1.954-7.782.179Z" transform="translate(0)" fill="#fff" fill-rule="evenodd"/>
  </g>
</svg>
